<?xml version="1.0" standalone="no"?>
<!DOCTYPE svg PUBLIC "-//W3C//DTD SVG 20010904//EN"
 "http://www.w3.org/TR/2001/REC-SVG-20010904/DTD/svg10.dtd">
<svg version="1.0" xmlns="http://www.w3.org/2000/svg"
 width="179.000000pt" height="179.000000pt" viewBox="0 0 179.000000 179.000000"
 preserveAspectRatio="xMidYMid meet">

<g transform="translate(0.000000,179.000000) scale(0.100000,-0.100000)"
fill="#000000" stroke="none">
<path d="M371 1704 c-61 -31 -95 -77 -111 -150 -7 -34 -10 -256 -8 -680 3
-622 3 -629 25 -669 24 -46 54 -75 103 -101 33 -18 65 -19 500 -19 l466 0 49
26 c35 18 59 39 80 74 l30 48 3 654 c2 441 -1 667 -8 694 -15 53 -83 124 -135
138 -26 7 -194 11 -491 11 l-450 0 -53 -26z m1023 -188 c43 -18 55 -59 28 -95
l-19 -26 -513 -3 c-572 -2 -560 -4 -560 62 0 32 18 57 50 69 8 3 232 6 498 6
391 1 489 -2 516 -13z m1 -546 c28 -11 49 -53 40 -81 -16 -50 0 -49 -548 -49
-569 0 -557 -1 -557 63 0 40 9 53 40 66 34 13 990 14 1025 1z m25 -297 c15
-19 19 -35 15 -53 -14 -57 7 -55 -533 -58 -273 -1 -507 0 -519 3 -34 8 -53 33
-53 70 0 67 -14 65 556 65 l513 0 21 -27z m-6 -263 c29 -30 30 -67 2 -94 l-25
-26 -508 0 c-565 0 -553 -1 -553 63 1 79 -12 77 562 74 436 -2 509 -4 522 -17z"/>
</g>
</svg>
